Coordinates
version=1
nRows=38
nColumns=38
inDegrees=no

Units are S.I. units (second, meters, Newtons, ...)
If the header above contains a line with 'inDegrees', this indicates whether rotational values are in degrees (yes) or radians (no).

endheader
time	pelvis_tilt	pelvis_list	pelvis_rotation	pelvis_tx	pelvis_ty	pelvis_tz	hip_flexion_r	hip_adduction_r	hip_rotation_r	knee_angle_r	ankle_angle_r	subtalar_angle_r	mtp_angle_r	hip_flexion_l	hip_adduction_l	hip_rotation_l	knee_angle_l	ankle_angle_l	subtalar_angle_l	mtp_angle_l	lumbar_extension	lumbar_bending	lumbar_rotation	arm_flex_r	arm_add_r	arm_rot_r	elbow_flex_r	pro_sup_r	wrist_flex_r	wrist_dev_r	arm_flex_l	arm_add_l	arm_rot_l	elbow_flex_l	pro_sup_l	wrist_flex_l	wrist_dev_l
5	2.97349	1.36028	-1.38628	0.673938	1.83199	0.949927	-0.137921	-0.0316084	-0.244345	0.24319	-0.00530076	0	0	-0.273636	0.0265015	-0.161308	0	-0.0444258	0	0	-0.3243	0.0122209	0.0396842	0.536612	-0.363134	0.253445	1.34111	1.5708	0	0	0.516625	-0.189222	0.0269739	1.42572	0.905884	0	0
5.01	2.96375	1.36155	-1.37597	0.674683	1.83354	0.949989	-0.145386	-0.0267171	-0.243371	0.229966	-0.00802459	0	0	-0.273645	0.0233917	-0.161092	0	-0.0428517	0	0	-0.320469	0.0143939	0.0407297	0.533502	-0.362933	0.253819	1.34155	1.5708	0	0	0.515148	-0.189644	0.0273712	1.42368	0.905653	0	0
5.02	2.95324	1.36168	-1.3648	0.67542	1.83506	0.95009	-0.154701	-0.0210783	-0.241554	0.215316	-0.0113801	0	0	-0.274803	0.0198259	-0.160917	0	-0.0412681	0	0	-0.31788	0.0169513	0.0416028	0.530969	-0.363101	0.254927	1.34215	1.5708	0	0	0.514064	-0.19043	0.0277564	1.42185	0.905433	0	0
5.03	2.94392	1.36099	-1.35479	0.676155	1.83656	0.950204	-0.165803	-0.0151111	-0.239154	0.198861	-0.015529	0	0	-0.276933	0.0163221	-0.160691	0	-0.0396553	0	0	-0.316141	0.0193799	0.0422728	0.528663	-0.363295	0.256177	1.34275	1.5708	0	0	0.513303	-0.191567	0.0282344	1.41994	0.905181	0	0
5.04	2.93626	1.35976	-1.34676	0.676908	1.83805	0.950317	-0.177698	-0.00933496	-0.235888	0.181876	-0.0201313	0	0	-0.279787	0.0131537	-0.160573	0	-0.0381127	0	0	-0.315061	0.0214852	0.0431611	0.526519	-0.363634	0.257444	1.34356	1.5708	0	0	0.512805	-0.192933	0.0289054	1.41813	0.904777	0	0
5.05	2.93056	1.3579	-1.34118	0.677692	1.83947	0.950466	-0.190207	-0.0039572	-0.231787	0.164917	-0.0249764	0	0	-0.283482	0.0104134	-0.160751	0	-0.0367556	0	0	-0.314873	0.0231595	0.0443104	0.524617	-0.36414	0.259188	1.3445	1.5708	0	0	0.512354	-0.194607	0.0296867	1.41682	0.9042	0	0
5.06	2.92583	1.35579	-1.33703	0.678465	1.84082	0.950625	-0.202811	0.00103955	-0.226722	0.148041	-0.0300312	0	0	-0.287506	0.00803455	-0.161533	0	-0.0354849	0	0	-0.315137	0.0246464	0.0456	0.523013	-0.364727	0.261414	1.3454	1.5708	0	0	0.51173	-0.196505	0.0305122	1.41589	0.903468	0	0
5.07	2.92049	1.35398	-1.33256	0.679237	1.8421	0.950753	-0.214311	0.00567512	-0.221338	0.132388	-0.034993	0	0	-0.291141	0.00571288	-0.162655	0	-0.0342572	0	0	-0.315158	0.0262343	0.0470648	0.52143	-0.365398	0.263756	1.34636	1.5708	0	0	0.510954	-0.198609	0.0314836	1.4151	0.902622	0	0
5.08	2.91427	1.3527	-1.3274	0.680001	1.84332	0.95081	-0.22416	0.00991612	-0.215776	0.118641	-0.0392527	0	0	-0.294104	0.0033636	-0.16364	0	-0.0330504	0	0	-0.314724	0.0279669	0.0485736	0.519733	-0.366249	0.266308	1.34783	1.5708	0	0	0.509857	-0.200962	0.0323562	1.41482	0.901656	0	0
5.09	2.90837	1.35168	-1.3228	0.680752	1.84448	0.950812	-0.232646	0.0134631	-0.210507	0.106942	-0.0428328	0	0	-0.296759	0.00125422	-0.164764	0	-0.0319054	0	0	-0.314113	0.029609	0.0500181	0.517987	-0.367079	0.269098	1.34966	1.5708	0	0	0.508363	-0.20354	0.0328168	1.41526	0.900591	0	0
5.1	2.90396	1.35096	-1.31979	0.681511	1.84563	0.950783	-0.24081	0.0165979	-0.205744	0.0952892	-0.0463489	0	0	-0.299154	-0.000392897	-0.166086	0	-0.0307792	0	0	-0.313149	0.0308359	0.051322	0.516333	-0.368179	0.272726	1.35104	1.5708	0	0	0.506466	-0.206397	0.0331434	1.41597	0.899439	0	0
5.11	2.90019	1.35026	-1.31751	0.682263	1.84674	0.95076	-0.248764	0.0194624	-0.200569	0.0839464	-0.0499082	0	0	-0.301551	-0.00188189	-0.167428	0	-0.0297026	0	0	-0.312195	0.0319599	0.0526867	0.51472	-0.36965	0.276855	1.35222	1.5708	0	0	0.504344	-0.209337	0.0335631	1.4167	0.898247	0	0
5.12	2.89685	1.34947	-1.31571	0.682986	1.84786	0.95071	-0.256555	0.022053	-0.195073	0.0731225	-0.05303	0	0	-0.304073	-0.00326658	-0.168861	0	-0.0285431	0	0	-0.311346	0.0329961	0.053889	0.512861	-0.371061	0.280567	1.35377	1.5708	0	0	0.501776	-0.212365	0.0334534	1.4181	0.897168	0	0
5.13	2.89395	1.34915	-1.31437	0.683664	1.84893	0.950603	-0.263169	0.0241482	-0.189705	0.0635349	-0.055545	0	0	-0.306079	-0.0043828	-0.170044	0	-0.0274104	0	0	-0.310021	0.0338538	0.0549292	0.510601	-0.372416	0.283947	1.35582	1.5708	0	0	0.498761	-0.215288	0.032664	1.41969	0.896227	0	0
5.14	2.89199	1.34879	-1.31381	0.684362	1.84998	0.950519	-0.269039	0.025933	-0.184945	0.0555599	-0.0575129	0	0	-0.308182	-0.00544245	-0.170918	0	-0.0262687	0	0	-0.308795	0.0344026	0.0558788	0.507942	-0.373944	0.287459	1.35836	1.5708	0	0	0.495366	-0.218556	0.0329994	1.42134	0.894866	0	0
5.15	2.89134	1.3482	-1.31453	0.685052	1.85102	0.950439	-0.274485	0.027315	-0.180699	0.048878	-0.0588301	0	0	-0.310582	-0.00623327	-0.171755	0	-0.025236	0	0	-0.308016	0.0346592	0.0569246	0.50466	-0.37588	0.290954	1.3619	1.5708	0	0	0.491924	-0.221946	0.0333294	1.42333	0.893022	0	0
5.16	2.89098	1.34764	-1.31563	0.685707	1.852	0.950364	-0.279052	0.0284696	-0.177193	0.0435811	-0.0599144	0	0	-0.31288	-0.00681489	-0.172737	0	-0.0242748	0	0	-0.307304	0.0348248	0.0578279	0.501523	-0.378141	0.295175	1.36546	1.5708	0	0	0.488261	-0.225303	0.0327254	1.42559	0.890737	0	0
5.17	2.88976	1.34729	-1.31562	0.686336	1.85291	0.950309	-0.282313	0.0296539	-0.174537	0.040068	-0.0606725	0	0	-0.314763	-0.00759373	-0.173469	0	-0.0234604	0	0	-0.306357	0.0351418	0.05833	0.498344	-0.380441	0.29984	1.36932	1.5708	0	0	0.484466	-0.22872	0.0314837	1.42791	0.888025	0	0
5.18	2.88859	1.34711	-1.31562	0.686934	1.85378	0.950273	-0.284585	0.0305851	-0.172301	0.0378691	-0.0608373	0	0	-0.316361	-0.00825445	-0.17412	0	-0.0228027	0	0	-0.305412	0.0354691	0.0587608	0.494603	-0.38295	0.304241	1.3751	1.5708	0	0	0.480489	-0.232194	0.0297799	1.43056	0.884959	0	0
5.19	2.88766	1.34705	-1.31587	0.687509	1.8546	0.950235	-0.285965	0.0312044	-0.170473	0.0370253	-0.0604324	0	0	-0.317742	-0.00874711	-0.174991	0	-0.0221295	0	0	-0.304588	0.0357928	0.0593564	0.489842	-0.38599	0.307529	1.38403	1.5708	0	0	0.476446	-0.235673	0.0279582	1.43346	0.881605	0	0
5.2	2.88642	1.34732	-1.31545	0.688062	1.8554	0.950174	-0.286439	0.0318279	-0.169439	0.0371691	-0.0596564	0	0	-0.318647	-0.00930872	-0.175523	0	-0.0215119	0	0	-0.303449	0.0360881	0.059678	0.483571	-0.389419	0.309366	1.39538	1.5708	0	0	0.472172	-0.239315	0.0261018	1.43705	0.877846	0	0
5.21	2.88462	1.34784	-1.31444	0.688608	1.85615	0.950109	-0.285615	0.0323788	-0.16931	0.0390092	-0.0582755	0	0	-0.319147	-0.00994232	-0.176012	0	-0.0209446	0	0	-0.302176	0.0364364	0.0600632	0.475805	-0.39359	0.310507	1.40871	1.5708	0	0	0.467482	-0.243053	0.0239555	1.44183	0.873609	0	0
5.22	2.88232	1.34846	-1.31287	0.68915	1.85685	0.950054	-0.283914	0.0329292	-0.169874	0.0420962	-0.0563931	0	0	-0.319375	-0.0106738	-0.176691	0	-0.0204608	0	0	-0.301	0.036971	0.0604329	0.466555	-0.39845	0.311205	1.42462	1.5708	0	0	0.462138	-0.24702	0.0214515	1.44781	0.868944	0	0
5.23	2.88104	1.35073	-1.31135	0.68985	1.85732	0.949974	-0.28049	0.0331252	-0.170821	0.0451575	-0.054543	0	0	-0.317499	-0.0111251	-0.176496	0	-0.0197082	0	0	-0.298604	0.0368583	0.0593821	0.45911	-0.40073	0.352627	1.39659	1.5708	0	0	0.456135	-0.251861	0.0189787	1.45382	0.863802	0	0
5.24	2.87975	1.35041	-1.3108	0.690165	1.85821	0.949886	-0.280039	0.0335491	-0.171763	0.0479323	-0.0523634	0	0	-0.318899	-0.0117539	-0.177	0	-0.0189659	0	0	-0.29804	0.0375321	0.0593894	0.445194	-0.409546	0.312521	1.46005	1.5708	0	0	0.448835	-0.256012	0.0146228	1.46189	0.858018	0	0
5.25	2.88132	1.35071	-1.31264	0.690678	1.85889	0.949844	-0.278939	0.0334153	-0.173183	0.0510227	-0.0504449	0	0	-0.319548	-0.0118376	-0.177285	0	-0.0182914	0	0	-0.297832	0.0371259	0.0597999	0.430224	-0.416308	0.307566	1.48299	1.5708	0	0	0.442041	-0.260182	0.0103839	1.46984	0.851471	0	0
5.26	2.88186	1.35111	-1.31327	0.691199	1.85954	0.949789	-0.277097	0.0334181	-0.174903	0.0552243	-0.0483425	0	0	-0.319948	-0.0122217	-0.177408	0	-0.0176946	0	0	-0.297537	0.0370076	0.0593477	0.416165	-0.423092	0.305124	1.50524	1.5708	0	0	0.433682	-0.264721	0.00343318	1.47973	0.843982	0	0
5.27	2.88103	1.35487	-1.3128	0.691733	1.86013	0.949483	-0.26566	0.0314555	-0.185579	0.0710368	-0.038269	0	0	-0.316494	-0.0119276	-0.177519	0	-0.016728	0	0	-0.293577	0.0362882	0.058985	0.401028	-0.429535	0.302555	1.52797	1.5708	0	0	0.423991	-0.268656	-0.00812577	1.48855	0.775797	0	0
5.28	2.87233	1.3657	-1.30604	0.692304	1.86065	0.948516	-0.239402	0.02701	-0.203809	0.100121	-0.0201366	0	0	-0.304622	-0.0105533	-0.183149	0	-0.00966443	0	0	-0.28189	0.0352355	0.059487	0.38562	-0.43629	0.301863	1.54904	1.5708	0	0	0.412561	-0.27225	-0.0167807	1.49786	0.778805	0	0
5.29	2.84285	1.34492	-1.27197	0.692378	1.8607	0.951081	-0.280084	0.0460134	-0.187578	0.0585147	-0.0514928	0	0	-0.325035	-0.0255909	-0.178578	0	-0.0165762	0	0	-0.304081	0.0494068	0.057015	0.374198	-0.443943	0.29823	1.57242	1.5708	0	0	0.402809	-0.275431	-0.0265285	1.51279	0.771556	0	0
5.3	2.88594	1.35428	-1.31555	0.693512	1.86199	0.949626	-0.271941	0.0341682	-0.178778	0.0647321	-0.041565	0	0	-0.319558	-0.0139923	-0.175213	0	-0.0157143	0	0	-0.294454	0.0349422	0.0539216	0.356332	-0.446165	0.333119	1.55554	1.5708	0	0	0.388231	-0.285821	-0.032901	1.53065	0.763061	0	0
5.31	2.88707	1.35431	-1.3169	0.693865	1.86286	0.949527	-0.271004	0.0339416	-0.180273	0.0683858	-0.0385211	0	0	-0.320583	-0.0142487	-0.174801	0	-0.0152464	0	0	-0.293652	0.0347323	0.0528663	0.338885	-0.452812	0.291099	1.61528	1.5708	0	0	0.372725	-0.291256	-0.042874	1.5475	0.75365	0	0
5.32	2.84704	1.32052	-1.29289	0.696997	1.86086	0.953094	-0.299344	0.0525733	-0.158436	0.0687932	-0.0511924	0	0	-0.354171	-0.0315605	-0.198577	0	-0.016487	0	0	-0.33664	0.0486315	0.0734708	0.322406	-0.451486	0.191222	1.72659	1.54199	0	0	0.369949	-0.295752	-0.050739	1.56629	0.743526	0	0
5.33	2.88957	1.35621	-1.31852	0.69491	1.86417	0.949317	-0.269414	0.0340903	-0.181966	0.0710881	-0.0349627	0	0	-0.320123	-0.0148266	-0.17344	0	-0.0139519	0	0	-0.291194	0.0333359	0.0503189	0.302818	-0.462581	0.278041	1.65908	1.5708	0	0	0.339454	-0.301937	-0.065526	1.58174	0.667939	0	0
5.34	2.89041	1.35724	-1.31902	0.695429	1.8648	0.949201	-0.269638	0.0344611	-0.18119	0.0701565	-0.0345153	0	0	-0.319767	-0.0151574	-0.172749	0	-0.01321	0	0	-0.289698	0.0326321	0.0490478	0.285276	-0.467401	0.272277	1.67841	1.5708	0	0	0.320743	-0.307366	-0.0722774	1.60272	0.718586	0	0
5.35	2.89148	1.36007	-1.3192	0.696133	1.86535	0.948991	-0.267221	0.0343542	-0.182087	0.0710619	-0.0327262	0	0	-0.317431	-0.0152962	-0.171388	0	-0.0123913	0	0	-0.287847	0.0324331	0.048762	0.252859	-0.462918	0.17235	1.78225	1.5411	0	0	0.301874	-0.31193	-0.0837807	1.6234	0.707045	0	0
5.36	2.89179	1.36176	-1.31918	0.696625	1.86599	0.948848	-0.266297	0.0344159	-0.182047	0.0711052	-0.0316342	0	0	-0.316375	-0.0155107	-0.170571	0	-0.0121801	0	0	-0.285869	0.031709	0.0490225	0.230395	-0.465771	0.157624	1.80694	1.50257	0	0	0.28246	-0.316251	-0.0948484	1.6443	0.695907	0	0
5.37	2.84949	1.35145	-1.2754	0.696471	1.86624	0.950362	-0.282707	0.0488198	-0.181906	0.0539533	-0.0470292	0	0	-0.324585	-0.028644	-0.172648	0	-0.0123941	0	0	-0.296311	0.0464547	0.0501109	0.199938	-0.461739	0.156158	1.80755	1.5074	0	0	0.262944	-0.316053	-0.109399	1.66305	0.685448	0	0
